<mxfile host="app.diagrams.net" modified="2021-09-10T10:21:20.936Z" agent="5.0 (Windows NT 10.0; Win64; x64) AppleWebKit/537.36 (KHTML, like Gecko) Chrome/91.0.4472.124 Safari/537.36" etag="rLZ0tHmmKZ_g663fMN2f" version="14.9.8" type="github" pages="2">
  <diagram id="C5RBs43oDa-KdzZeNtuy" name="Page-1">
    <mxGraphModel dx="1303" dy="553" grid="1" gridSize="10" guides="1" tooltips="1" connect="1" arrows="1" fold="1" page="1" pageScale="1" pageWidth="827" pageHeight="1169" math="0" shadow="0">
      <root>
        <mxCell id="WIyWlLk6GJQsqaUBKTNV-0" />
        <mxCell id="WIyWlLk6GJQsqaUBKTNV-1" parent="WIyWlLk6GJQsqaUBKTNV-0" />
        <mxCell id="toO_-DpsWx3xXtTEHLyJ-13" value="" style="edgeStyle=orthogonalEdgeStyle;rounded=0;orthogonalLoop=1;jettySize=auto;html=1;" edge="1" parent="WIyWlLk6GJQsqaUBKTNV-1" source="WIyWlLk6GJQsqaUBKTNV-3" target="toO_-DpsWx3xXtTEHLyJ-12">
          <mxGeometry relative="1" as="geometry" />
        </mxCell>
        <mxCell id="toO_-DpsWx3xXtTEHLyJ-15" value="" style="edgeStyle=orthogonalEdgeStyle;rounded=0;orthogonalLoop=1;jettySize=auto;html=1;" edge="1" parent="WIyWlLk6GJQsqaUBKTNV-1" source="WIyWlLk6GJQsqaUBKTNV-3">
          <mxGeometry relative="1" as="geometry">
            <mxPoint x="461" y="258" as="targetPoint" />
            <Array as="points">
              <mxPoint x="598" y="65" />
              <mxPoint x="598" y="295" />
            </Array>
          </mxGeometry>
        </mxCell>
        <mxCell id="WIyWlLk6GJQsqaUBKTNV-3" value="login" style="rounded=1;whiteSpace=wrap;html=1;fontSize=12;glass=0;strokeWidth=1;shadow=0;" parent="WIyWlLk6GJQsqaUBKTNV-1" vertex="1">
          <mxGeometry x="341" y="45" width="120" height="40" as="geometry" />
        </mxCell>
        <mxCell id="toO_-DpsWx3xXtTEHLyJ-21" value="" style="edgeStyle=orthogonalEdgeStyle;rounded=0;orthogonalLoop=1;jettySize=auto;html=1;" edge="1" parent="WIyWlLk6GJQsqaUBKTNV-1" source="toO_-DpsWx3xXtTEHLyJ-12" target="toO_-DpsWx3xXtTEHLyJ-20">
          <mxGeometry relative="1" as="geometry" />
        </mxCell>
        <mxCell id="toO_-DpsWx3xXtTEHLyJ-23" value="" style="edgeStyle=orthogonalEdgeStyle;rounded=0;orthogonalLoop=1;jettySize=auto;html=1;" edge="1" parent="WIyWlLk6GJQsqaUBKTNV-1" source="toO_-DpsWx3xXtTEHLyJ-12" target="toO_-DpsWx3xXtTEHLyJ-22">
          <mxGeometry relative="1" as="geometry" />
        </mxCell>
        <mxCell id="toO_-DpsWx3xXtTEHLyJ-12" value="注册" style="whiteSpace=wrap;html=1;rounded=1;shadow=0;strokeWidth=1;glass=0;fillColor=#dae8fc;strokeColor=#6c8ebf;" vertex="1" parent="WIyWlLk6GJQsqaUBKTNV-1">
          <mxGeometry x="341" y="114" width="120" height="40" as="geometry" />
        </mxCell>
        <mxCell id="f17TQ9sOA41aRzLkamYI-11" value="" style="edgeStyle=orthogonalEdgeStyle;rounded=0;orthogonalLoop=1;jettySize=auto;html=1;" edge="1" parent="WIyWlLk6GJQsqaUBKTNV-1" source="toO_-DpsWx3xXtTEHLyJ-14" target="f17TQ9sOA41aRzLkamYI-10">
          <mxGeometry relative="1" as="geometry" />
        </mxCell>
        <mxCell id="toO_-DpsWx3xXtTEHLyJ-14" value="登录" style="whiteSpace=wrap;html=1;rounded=1;shadow=0;strokeWidth=1;glass=0;fillColor=#d5e8d4;strokeColor=#82b366;" vertex="1" parent="WIyWlLk6GJQsqaUBKTNV-1">
          <mxGeometry x="341" y="275" width="120" height="40" as="geometry" />
        </mxCell>
        <mxCell id="toO_-DpsWx3xXtTEHLyJ-40" value="" style="edgeStyle=orthogonalEdgeStyle;rounded=0;orthogonalLoop=1;jettySize=auto;html=1;" edge="1" parent="WIyWlLk6GJQsqaUBKTNV-1" source="toO_-DpsWx3xXtTEHLyJ-20">
          <mxGeometry relative="1" as="geometry">
            <mxPoint x="401" y="275" as="targetPoint" />
            <Array as="points">
              <mxPoint x="401" y="234" />
              <mxPoint x="401" y="234" />
            </Array>
          </mxGeometry>
        </mxCell>
        <mxCell id="toO_-DpsWx3xXtTEHLyJ-20" value="发布者注册" style="whiteSpace=wrap;html=1;rounded=1;shadow=0;strokeWidth=1;glass=0;" vertex="1" parent="WIyWlLk6GJQsqaUBKTNV-1">
          <mxGeometry x="241" y="214" width="120" height="40" as="geometry" />
        </mxCell>
        <mxCell id="toO_-DpsWx3xXtTEHLyJ-39" style="edgeStyle=orthogonalEdgeStyle;rounded=0;orthogonalLoop=1;jettySize=auto;html=1;entryX=0.5;entryY=0;entryDx=0;entryDy=0;" edge="1" parent="WIyWlLk6GJQsqaUBKTNV-1" source="toO_-DpsWx3xXtTEHLyJ-22" target="toO_-DpsWx3xXtTEHLyJ-14">
          <mxGeometry relative="1" as="geometry">
            <Array as="points">
              <mxPoint x="401" y="234" />
            </Array>
          </mxGeometry>
        </mxCell>
        <mxCell id="toO_-DpsWx3xXtTEHLyJ-22" value="成员注册" style="whiteSpace=wrap;html=1;rounded=1;shadow=0;strokeWidth=1;glass=0;" vertex="1" parent="WIyWlLk6GJQsqaUBKTNV-1">
          <mxGeometry x="441" y="214" width="120" height="40" as="geometry" />
        </mxCell>
        <mxCell id="toO_-DpsWx3xXtTEHLyJ-45" value="" style="edgeStyle=orthogonalEdgeStyle;rounded=0;orthogonalLoop=1;jettySize=auto;html=1;" edge="1" parent="WIyWlLk6GJQsqaUBKTNV-1" source="toO_-DpsWx3xXtTEHLyJ-36" target="toO_-DpsWx3xXtTEHLyJ-44">
          <mxGeometry relative="1" as="geometry" />
        </mxCell>
        <mxCell id="toO_-DpsWx3xXtTEHLyJ-82" value="" style="edgeStyle=orthogonalEdgeStyle;rounded=0;orthogonalLoop=1;jettySize=auto;html=1;entryX=0.5;entryY=-0.067;entryDx=0;entryDy=0;entryPerimeter=0;" edge="1" parent="WIyWlLk6GJQsqaUBKTNV-1" source="toO_-DpsWx3xXtTEHLyJ-36" target="toO_-DpsWx3xXtTEHLyJ-53">
          <mxGeometry relative="1" as="geometry">
            <mxPoint x="150" y="790" as="targetPoint" />
            <Array as="points">
              <mxPoint x="150" y="480" />
            </Array>
          </mxGeometry>
        </mxCell>
        <mxCell id="toO_-DpsWx3xXtTEHLyJ-36" value="发布者" style="rhombus;whiteSpace=wrap;html=1;rounded=1;shadow=0;strokeWidth=1;glass=0;fillColor=#f8cecc;strokeColor=#b85450;" vertex="1" parent="WIyWlLk6GJQsqaUBKTNV-1">
          <mxGeometry x="200" y="450" width="121" height="60" as="geometry" />
        </mxCell>
        <mxCell id="toO_-DpsWx3xXtTEHLyJ-86" value="" style="edgeStyle=orthogonalEdgeStyle;rounded=0;orthogonalLoop=1;jettySize=auto;html=1;" edge="1" parent="WIyWlLk6GJQsqaUBKTNV-1" source="toO_-DpsWx3xXtTEHLyJ-42" target="toO_-DpsWx3xXtTEHLyJ-85">
          <mxGeometry relative="1" as="geometry" />
        </mxCell>
        <mxCell id="toO_-DpsWx3xXtTEHLyJ-42" value="成员" style="rhombus;whiteSpace=wrap;html=1;rounded=1;shadow=0;strokeWidth=1;glass=0;fillColor=#dae8fc;strokeColor=#6c8ebf;" vertex="1" parent="WIyWlLk6GJQsqaUBKTNV-1">
          <mxGeometry x="480" y="450" width="120" height="60" as="geometry" />
        </mxCell>
        <mxCell id="toO_-DpsWx3xXtTEHLyJ-47" value="" style="edgeStyle=orthogonalEdgeStyle;rounded=0;orthogonalLoop=1;jettySize=auto;html=1;startArrow=none;entryX=0.5;entryY=1;entryDx=0;entryDy=0;" edge="1" parent="WIyWlLk6GJQsqaUBKTNV-1" source="toO_-DpsWx3xXtTEHLyJ-58" target="toO_-DpsWx3xXtTEHLyJ-67">
          <mxGeometry relative="1" as="geometry">
            <mxPoint x="540" y="510" as="targetPoint" />
            <Array as="points">
              <mxPoint x="435" y="760" />
            </Array>
          </mxGeometry>
        </mxCell>
        <mxCell id="toO_-DpsWx3xXtTEHLyJ-68" value="" style="edgeStyle=orthogonalEdgeStyle;rounded=0;orthogonalLoop=1;jettySize=auto;html=1;" edge="1" parent="WIyWlLk6GJQsqaUBKTNV-1" source="toO_-DpsWx3xXtTEHLyJ-44" target="toO_-DpsWx3xXtTEHLyJ-67">
          <mxGeometry relative="1" as="geometry" />
        </mxCell>
        <mxCell id="toO_-DpsWx3xXtTEHLyJ-73" value="指定项目成员" style="edgeLabel;html=1;align=center;verticalAlign=middle;resizable=0;points=[];" vertex="1" connectable="0" parent="toO_-DpsWx3xXtTEHLyJ-68">
          <mxGeometry x="-0.2459" y="-2" relative="1" as="geometry">
            <mxPoint x="-1" y="-15" as="offset" />
          </mxGeometry>
        </mxCell>
        <mxCell id="toO_-DpsWx3xXtTEHLyJ-111" value="" style="edgeStyle=orthogonalEdgeStyle;rounded=0;orthogonalLoop=1;jettySize=auto;html=1;entryX=0.502;entryY=-0.034;entryDx=0;entryDy=0;entryPerimeter=0;" edge="1" parent="WIyWlLk6GJQsqaUBKTNV-1" source="toO_-DpsWx3xXtTEHLyJ-44" target="toO_-DpsWx3xXtTEHLyJ-49">
          <mxGeometry relative="1" as="geometry" />
        </mxCell>
        <mxCell id="toO_-DpsWx3xXtTEHLyJ-44" value="新建项目" style="whiteSpace=wrap;html=1;rounded=1;shadow=0;strokeWidth=1;glass=0;" vertex="1" parent="WIyWlLk6GJQsqaUBKTNV-1">
          <mxGeometry x="201" y="530" width="120" height="40" as="geometry" />
        </mxCell>
        <mxCell id="toO_-DpsWx3xXtTEHLyJ-112" value="" style="edgeStyle=orthogonalEdgeStyle;rounded=0;orthogonalLoop=1;jettySize=auto;html=1;" edge="1" parent="WIyWlLk6GJQsqaUBKTNV-1" source="toO_-DpsWx3xXtTEHLyJ-49">
          <mxGeometry relative="1" as="geometry">
            <mxPoint x="261" y="670" as="targetPoint" />
            <Array as="points">
              <mxPoint x="261" y="660" />
              <mxPoint x="261" y="660" />
            </Array>
          </mxGeometry>
        </mxCell>
        <mxCell id="toO_-DpsWx3xXtTEHLyJ-49" value="发布项目任务" style="whiteSpace=wrap;html=1;rounded=1;shadow=0;strokeWidth=1;glass=0;" vertex="1" parent="WIyWlLk6GJQsqaUBKTNV-1">
          <mxGeometry x="201" y="600" width="120" height="40" as="geometry" />
        </mxCell>
        <mxCell id="toO_-DpsWx3xXtTEHLyJ-58" value="指定成员" style="whiteSpace=wrap;html=1;rounded=1;shadow=0;strokeWidth=1;glass=0;" vertex="1" parent="WIyWlLk6GJQsqaUBKTNV-1">
          <mxGeometry x="201" y="740" width="120" height="40" as="geometry" />
        </mxCell>
        <mxCell id="toO_-DpsWx3xXtTEHLyJ-70" value="" style="edgeStyle=orthogonalEdgeStyle;rounded=0;orthogonalLoop=1;jettySize=auto;html=1;" edge="1" parent="WIyWlLk6GJQsqaUBKTNV-1" source="toO_-DpsWx3xXtTEHLyJ-67">
          <mxGeometry relative="1" as="geometry">
            <mxPoint x="540" y="510" as="targetPoint" />
          </mxGeometry>
        </mxCell>
        <mxCell id="toO_-DpsWx3xXtTEHLyJ-67" value="发送通知" style="ellipse;whiteSpace=wrap;html=1;rounded=1;shadow=0;strokeWidth=1;glass=0;fillColor=#ffe6cc;strokeColor=#d79b00;" vertex="1" parent="WIyWlLk6GJQsqaUBKTNV-1">
          <mxGeometry x="390" y="630" width="90" height="40" as="geometry" />
        </mxCell>
        <mxCell id="toO_-DpsWx3xXtTEHLyJ-75" value="" style="edgeStyle=orthogonalEdgeStyle;rounded=0;orthogonalLoop=1;jettySize=auto;html=1;" edge="1" parent="WIyWlLk6GJQsqaUBKTNV-1" target="toO_-DpsWx3xXtTEHLyJ-74">
          <mxGeometry relative="1" as="geometry">
            <mxPoint x="150.0344827586207" y="840" as="sourcePoint" />
          </mxGeometry>
        </mxCell>
        <mxCell id="toO_-DpsWx3xXtTEHLyJ-77" value="" style="edgeStyle=orthogonalEdgeStyle;rounded=0;orthogonalLoop=1;jettySize=auto;html=1;" edge="1" parent="WIyWlLk6GJQsqaUBKTNV-1" source="toO_-DpsWx3xXtTEHLyJ-74" target="toO_-DpsWx3xXtTEHLyJ-76">
          <mxGeometry relative="1" as="geometry" />
        </mxCell>
        <mxCell id="toO_-DpsWx3xXtTEHLyJ-74" value="未读" style="whiteSpace=wrap;html=1;rounded=1;shadow=0;strokeWidth=1;glass=0;" vertex="1" parent="WIyWlLk6GJQsqaUBKTNV-1">
          <mxGeometry x="90" y="860" width="120" height="40" as="geometry" />
        </mxCell>
        <mxCell id="toO_-DpsWx3xXtTEHLyJ-79" value="" style="edgeStyle=orthogonalEdgeStyle;rounded=0;orthogonalLoop=1;jettySize=auto;html=1;" edge="1" parent="WIyWlLk6GJQsqaUBKTNV-1" source="toO_-DpsWx3xXtTEHLyJ-76" target="toO_-DpsWx3xXtTEHLyJ-78">
          <mxGeometry relative="1" as="geometry" />
        </mxCell>
        <mxCell id="toO_-DpsWx3xXtTEHLyJ-76" value="已读" style="whiteSpace=wrap;html=1;rounded=1;shadow=0;strokeWidth=1;glass=0;" vertex="1" parent="WIyWlLk6GJQsqaUBKTNV-1">
          <mxGeometry x="90" y="920" width="120" height="40" as="geometry" />
        </mxCell>
        <mxCell id="toO_-DpsWx3xXtTEHLyJ-115" value="" style="edgeStyle=orthogonalEdgeStyle;rounded=0;orthogonalLoop=1;jettySize=auto;html=1;" edge="1" parent="WIyWlLk6GJQsqaUBKTNV-1" source="toO_-DpsWx3xXtTEHLyJ-78" target="toO_-DpsWx3xXtTEHLyJ-114">
          <mxGeometry relative="1" as="geometry" />
        </mxCell>
        <mxCell id="toO_-DpsWx3xXtTEHLyJ-78" value="执行中" style="whiteSpace=wrap;html=1;rounded=1;shadow=0;strokeWidth=1;glass=0;" vertex="1" parent="WIyWlLk6GJQsqaUBKTNV-1">
          <mxGeometry x="90" y="980" width="120" height="40" as="geometry" />
        </mxCell>
        <mxCell id="toO_-DpsWx3xXtTEHLyJ-53" value="查看任务" style="whiteSpace=wrap;html=1;rounded=1;shadow=0;strokeWidth=1;glass=0;" vertex="1" parent="WIyWlLk6GJQsqaUBKTNV-1">
          <mxGeometry x="90" y="800" width="120" height="40" as="geometry" />
        </mxCell>
        <mxCell id="toO_-DpsWx3xXtTEHLyJ-119" value="" style="edgeStyle=orthogonalEdgeStyle;rounded=0;orthogonalLoop=1;jettySize=auto;html=1;" edge="1" parent="WIyWlLk6GJQsqaUBKTNV-1" source="toO_-DpsWx3xXtTEHLyJ-85" target="toO_-DpsWx3xXtTEHLyJ-118">
          <mxGeometry relative="1" as="geometry" />
        </mxCell>
        <mxCell id="toO_-DpsWx3xXtTEHLyJ-85" value="&lt;span&gt;查看任务&lt;/span&gt;" style="whiteSpace=wrap;html=1;rounded=1;shadow=0;strokeWidth=1;glass=0;" vertex="1" parent="WIyWlLk6GJQsqaUBKTNV-1">
          <mxGeometry x="480" y="720" width="120" height="40" as="geometry" />
        </mxCell>
        <mxCell id="toO_-DpsWx3xXtTEHLyJ-113" value="" style="edgeStyle=orthogonalEdgeStyle;rounded=0;orthogonalLoop=1;jettySize=auto;html=1;" edge="1" parent="WIyWlLk6GJQsqaUBKTNV-1" source="toO_-DpsWx3xXtTEHLyJ-88">
          <mxGeometry relative="1" as="geometry">
            <mxPoint x="260" y="740" as="targetPoint" />
          </mxGeometry>
        </mxCell>
        <mxCell id="toO_-DpsWx3xXtTEHLyJ-88" value="草稿箱" style="whiteSpace=wrap;html=1;rounded=1;shadow=0;strokeWidth=1;glass=0;" vertex="1" parent="WIyWlLk6GJQsqaUBKTNV-1">
          <mxGeometry x="200" y="670" width="120" height="40" as="geometry" />
        </mxCell>
        <mxCell id="toO_-DpsWx3xXtTEHLyJ-114" value="已完成" style="whiteSpace=wrap;html=1;rounded=1;shadow=0;strokeWidth=1;glass=0;" vertex="1" parent="WIyWlLk6GJQsqaUBKTNV-1">
          <mxGeometry x="280" y="980" width="120" height="40" as="geometry" />
        </mxCell>
        <mxCell id="toO_-DpsWx3xXtTEHLyJ-121" value="" style="edgeStyle=orthogonalEdgeStyle;rounded=0;orthogonalLoop=1;jettySize=auto;html=1;" edge="1" parent="WIyWlLk6GJQsqaUBKTNV-1" source="toO_-DpsWx3xXtTEHLyJ-118" target="toO_-DpsWx3xXtTEHLyJ-120">
          <mxGeometry relative="1" as="geometry" />
        </mxCell>
        <mxCell id="toO_-DpsWx3xXtTEHLyJ-118" value="&lt;span&gt;待执行&lt;/span&gt;" style="whiteSpace=wrap;html=1;rounded=1;shadow=0;strokeWidth=1;glass=0;" vertex="1" parent="WIyWlLk6GJQsqaUBKTNV-1">
          <mxGeometry x="480" y="790" width="120" height="40" as="geometry" />
        </mxCell>
        <mxCell id="toO_-DpsWx3xXtTEHLyJ-140" value="" style="edgeStyle=orthogonalEdgeStyle;rounded=0;orthogonalLoop=1;jettySize=auto;html=1;" edge="1" parent="WIyWlLk6GJQsqaUBKTNV-1" source="toO_-DpsWx3xXtTEHLyJ-120" target="toO_-DpsWx3xXtTEHLyJ-139">
          <mxGeometry relative="1" as="geometry" />
        </mxCell>
        <mxCell id="toO_-DpsWx3xXtTEHLyJ-120" value="&lt;span&gt;执行中&lt;/span&gt;" style="whiteSpace=wrap;html=1;rounded=1;shadow=0;strokeWidth=1;glass=0;" vertex="1" parent="WIyWlLk6GJQsqaUBKTNV-1">
          <mxGeometry x="480" y="860" width="120" height="40" as="geometry" />
        </mxCell>
        <mxCell id="toO_-DpsWx3xXtTEHLyJ-125" value="" style="edgeStyle=orthogonalEdgeStyle;rounded=0;orthogonalLoop=1;jettySize=auto;html=1;exitX=0.5;exitY=1;exitDx=0;exitDy=0;" edge="1" parent="WIyWlLk6GJQsqaUBKTNV-1" source="toO_-DpsWx3xXtTEHLyJ-120">
          <mxGeometry relative="1" as="geometry">
            <mxPoint x="549.9655172413793" y="910" as="sourcePoint" />
            <mxPoint x="400" y="1000" as="targetPoint" />
            <Array as="points">
              <mxPoint x="540" y="1000" />
            </Array>
          </mxGeometry>
        </mxCell>
        <mxCell id="toO_-DpsWx3xXtTEHLyJ-139" value="通知发布者" style="ellipse;whiteSpace=wrap;html=1;rounded=1;shadow=0;strokeWidth=1;glass=0;fillColor=#ffe6cc;strokeColor=#d79b00;" vertex="1" parent="WIyWlLk6GJQsqaUBKTNV-1">
          <mxGeometry x="650" y="860" width="80" height="40" as="geometry" />
        </mxCell>
        <mxCell id="f17TQ9sOA41aRzLkamYI-14" value="" style="edgeStyle=orthogonalEdgeStyle;rounded=0;orthogonalLoop=1;jettySize=auto;html=1;" edge="1" parent="WIyWlLk6GJQsqaUBKTNV-1" source="f17TQ9sOA41aRzLkamYI-10" target="f17TQ9sOA41aRzLkamYI-12">
          <mxGeometry relative="1" as="geometry" />
        </mxCell>
        <mxCell id="f17TQ9sOA41aRzLkamYI-10" value="判断身份" style="whiteSpace=wrap;html=1;rounded=1;shadow=0;strokeWidth=1;glass=0;" vertex="1" parent="WIyWlLk6GJQsqaUBKTNV-1">
          <mxGeometry x="341" y="338" width="120" height="40" as="geometry" />
        </mxCell>
        <mxCell id="f17TQ9sOA41aRzLkamYI-16" value="" style="edgeStyle=orthogonalEdgeStyle;rounded=0;orthogonalLoop=1;jettySize=auto;html=1;" edge="1" parent="WIyWlLk6GJQsqaUBKTNV-1" source="f17TQ9sOA41aRzLkamYI-12">
          <mxGeometry relative="1" as="geometry">
            <mxPoint x="321" y="480" as="targetPoint" />
            <Array as="points">
              <mxPoint x="401" y="480" />
            </Array>
          </mxGeometry>
        </mxCell>
        <mxCell id="f17TQ9sOA41aRzLkamYI-18" value="" style="edgeStyle=orthogonalEdgeStyle;rounded=0;orthogonalLoop=1;jettySize=auto;html=1;entryX=0;entryY=0.5;entryDx=0;entryDy=0;" edge="1" parent="WIyWlLk6GJQsqaUBKTNV-1" source="f17TQ9sOA41aRzLkamYI-12" target="toO_-DpsWx3xXtTEHLyJ-42">
          <mxGeometry relative="1" as="geometry">
            <mxPoint x="401" y="520" as="targetPoint" />
            <Array as="points">
              <mxPoint x="401" y="480" />
            </Array>
          </mxGeometry>
        </mxCell>
        <mxCell id="f17TQ9sOA41aRzLkamYI-12" value="设置cookie登录态" style="whiteSpace=wrap;html=1;rounded=1;shadow=0;strokeWidth=1;glass=0;" vertex="1" parent="WIyWlLk6GJQsqaUBKTNV-1">
          <mxGeometry x="341" y="400" width="120" height="40" as="geometry" />
        </mxCell>
      </root>
    </mxGraphModel>
  </diagram>
  <diagram id="-ktQBPrb7OrfaNlXerb-" name="Page-2">
    <mxGraphModel dx="1564" dy="663" grid="1" gridSize="10" guides="1" tooltips="1" connect="1" arrows="1" fold="1" page="1" pageScale="1" pageWidth="827" pageHeight="1169" math="0" shadow="0">
      <root>
        <mxCell id="0HENcQPIfgkLxAprL_2r-0" />
        <mxCell id="0HENcQPIfgkLxAprL_2r-1" parent="0HENcQPIfgkLxAprL_2r-0" />
        <mxCell id="3Pf0c1-9sglwdIu-QdAl-51" value="" style="rounded=0;whiteSpace=wrap;html=1;gradientColor=none;" vertex="1" parent="0HENcQPIfgkLxAprL_2r-1">
          <mxGeometry x="100" y="130" width="420" height="80" as="geometry" />
        </mxCell>
        <mxCell id="3Pf0c1-9sglwdIu-QdAl-52" value="前端" style="text;html=1;strokeColor=none;fillColor=none;align=center;verticalAlign=middle;whiteSpace=wrap;rounded=0;" vertex="1" parent="0HENcQPIfgkLxAprL_2r-1">
          <mxGeometry x="110" y="160" width="40" height="20" as="geometry" />
        </mxCell>
        <mxCell id="3Pf0c1-9sglwdIu-QdAl-54" value="react 全家桶" style="rounded=1;whiteSpace=wrap;html=1;fillColor=#1ba1e2;strokeColor=#006EAF;fontColor=#ffffff;" vertex="1" parent="0HENcQPIfgkLxAprL_2r-1">
          <mxGeometry x="170" y="150" width="90" height="40" as="geometry" />
        </mxCell>
        <mxCell id="3Pf0c1-9sglwdIu-QdAl-55" value="antd" style="rounded=1;whiteSpace=wrap;html=1;fillColor=#1ba1e2;strokeColor=#006EAF;fontColor=#ffffff;" vertex="1" parent="0HENcQPIfgkLxAprL_2r-1">
          <mxGeometry x="275" y="150" width="90" height="40" as="geometry" />
        </mxCell>
        <mxCell id="3Pf0c1-9sglwdIu-QdAl-56" value="webpack" style="rounded=1;whiteSpace=wrap;html=1;fillColor=#1ba1e2;strokeColor=#006EAF;fontColor=#ffffff;" vertex="1" parent="0HENcQPIfgkLxAprL_2r-1">
          <mxGeometry x="380" y="150" width="86" height="40" as="geometry" />
        </mxCell>
        <mxCell id="3Pf0c1-9sglwdIu-QdAl-57" value="" style="rounded=0;whiteSpace=wrap;html=1;gradientColor=none;" vertex="1" parent="0HENcQPIfgkLxAprL_2r-1">
          <mxGeometry x="100" y="310" width="420" height="80" as="geometry" />
        </mxCell>
        <mxCell id="3Pf0c1-9sglwdIu-QdAl-58" value="接口" style="text;html=1;strokeColor=none;fillColor=none;align=center;verticalAlign=middle;whiteSpace=wrap;rounded=0;" vertex="1" parent="0HENcQPIfgkLxAprL_2r-1">
          <mxGeometry x="110" y="340" width="40" height="20" as="geometry" />
        </mxCell>
        <mxCell id="3Pf0c1-9sglwdIu-QdAl-59" value="http/https" style="rounded=1;whiteSpace=wrap;html=1;fillColor=#008a00;strokeColor=#005700;fontColor=#ffffff;" vertex="1" parent="0HENcQPIfgkLxAprL_2r-1">
          <mxGeometry x="170" y="330" width="90" height="40" as="geometry" />
        </mxCell>
        <mxCell id="3Pf0c1-9sglwdIu-QdAl-60" value="postman" style="rounded=1;whiteSpace=wrap;html=1;fillColor=#008a00;strokeColor=#005700;fontColor=#ffffff;" vertex="1" parent="0HENcQPIfgkLxAprL_2r-1">
          <mxGeometry x="275" y="330" width="90" height="40" as="geometry" />
        </mxCell>
        <mxCell id="3Pf0c1-9sglwdIu-QdAl-61" value="" style="rounded=0;whiteSpace=wrap;html=1;gradientColor=none;" vertex="1" parent="0HENcQPIfgkLxAprL_2r-1">
          <mxGeometry x="100" y="220" width="420" height="80" as="geometry" />
        </mxCell>
        <mxCell id="3Pf0c1-9sglwdIu-QdAl-62" value="应用" style="text;html=1;strokeColor=none;fillColor=none;align=center;verticalAlign=middle;whiteSpace=wrap;rounded=0;" vertex="1" parent="0HENcQPIfgkLxAprL_2r-1">
          <mxGeometry x="110" y="250" width="40" height="20" as="geometry" />
        </mxCell>
        <mxCell id="3Pf0c1-9sglwdIu-QdAl-63" value="数据缓存" style="rounded=1;whiteSpace=wrap;html=1;fillColor=#60a917;strokeColor=#2D7600;fontColor=#ffffff;" vertex="1" parent="0HENcQPIfgkLxAprL_2r-1">
          <mxGeometry x="170" y="240" width="90" height="40" as="geometry" />
        </mxCell>
        <mxCell id="3Pf0c1-9sglwdIu-QdAl-64" value="cookie" style="rounded=1;whiteSpace=wrap;html=1;fillColor=#60a917;strokeColor=#2D7600;fontColor=#ffffff;" vertex="1" parent="0HENcQPIfgkLxAprL_2r-1">
          <mxGeometry x="275" y="240" width="90" height="40" as="geometry" />
        </mxCell>
        <mxCell id="3Pf0c1-9sglwdIu-QdAl-69" value="" style="rounded=0;whiteSpace=wrap;html=1;gradientColor=none;" vertex="1" parent="0HENcQPIfgkLxAprL_2r-1">
          <mxGeometry x="100" y="400" width="420" height="80" as="geometry" />
        </mxCell>
        <mxCell id="3Pf0c1-9sglwdIu-QdAl-70" value="服务" style="text;html=1;strokeColor=none;fillColor=none;align=center;verticalAlign=middle;whiteSpace=wrap;rounded=0;" vertex="1" parent="0HENcQPIfgkLxAprL_2r-1">
          <mxGeometry x="110" y="430" width="40" height="20" as="geometry" />
        </mxCell>
        <mxCell id="3Pf0c1-9sglwdIu-QdAl-71" value="node" style="rounded=1;whiteSpace=wrap;html=1;fillColor=#008a00;strokeColor=#005700;fontColor=#ffffff;" vertex="1" parent="0HENcQPIfgkLxAprL_2r-1">
          <mxGeometry x="170" y="420" width="90" height="40" as="geometry" />
        </mxCell>
        <mxCell id="3Pf0c1-9sglwdIu-QdAl-73" value="" style="rounded=0;whiteSpace=wrap;html=1;gradientColor=none;" vertex="1" parent="0HENcQPIfgkLxAprL_2r-1">
          <mxGeometry x="100" y="490" width="420" height="200" as="geometry" />
        </mxCell>
        <mxCell id="3Pf0c1-9sglwdIu-QdAl-74" value="数据" style="text;html=1;strokeColor=none;fillColor=none;align=center;verticalAlign=middle;whiteSpace=wrap;rounded=0;" vertex="1" parent="0HENcQPIfgkLxAprL_2r-1">
          <mxGeometry x="110" y="575" width="40" height="20" as="geometry" />
        </mxCell>
        <mxCell id="3Pf0c1-9sglwdIu-QdAl-76" value="" style="rounded=0;whiteSpace=wrap;html=1;fillColor=#e51400;strokeColor=#B20000;fontColor=#ffffff;" vertex="1" parent="0HENcQPIfgkLxAprL_2r-1">
          <mxGeometry x="275" y="410" width="165" height="60" as="geometry" />
        </mxCell>
        <mxCell id="3Pf0c1-9sglwdIu-QdAl-78" value="通信" style="text;html=1;align=center;verticalAlign=middle;whiteSpace=wrap;rounded=0;fontColor=#FFFFFF;" vertex="1" parent="0HENcQPIfgkLxAprL_2r-1">
          <mxGeometry x="290" y="430" width="40" height="20" as="geometry" />
        </mxCell>
        <mxCell id="3Pf0c1-9sglwdIu-QdAl-79" value="socket" style="rounded=1;whiteSpace=wrap;html=1;" vertex="1" parent="0HENcQPIfgkLxAprL_2r-1">
          <mxGeometry x="340" y="425" width="70" height="30" as="geometry" />
        </mxCell>
        <mxCell id="3Pf0c1-9sglwdIu-QdAl-82" value="" style="edgeStyle=orthogonalEdgeStyle;rounded=0;orthogonalLoop=1;jettySize=auto;html=1;fontColor=#FFFFFF;" edge="1" parent="0HENcQPIfgkLxAprL_2r-1" source="3Pf0c1-9sglwdIu-QdAl-80" target="3Pf0c1-9sglwdIu-QdAl-81">
          <mxGeometry relative="1" as="geometry">
            <Array as="points">
              <mxPoint x="300" y="620" />
            </Array>
          </mxGeometry>
        </mxCell>
        <mxCell id="3Pf0c1-9sglwdIu-QdAl-86" value="" style="edgeStyle=orthogonalEdgeStyle;rounded=0;orthogonalLoop=1;jettySize=auto;html=1;fontColor=#FFFFFF;" edge="1" parent="0HENcQPIfgkLxAprL_2r-1" source="3Pf0c1-9sglwdIu-QdAl-80">
          <mxGeometry relative="1" as="geometry">
            <mxPoint x="370" y="620" as="targetPoint" />
            <Array as="points">
              <mxPoint x="300" y="620" />
            </Array>
          </mxGeometry>
        </mxCell>
        <mxCell id="3Pf0c1-9sglwdIu-QdAl-80" value="mysql" style="shape=cylinder3;whiteSpace=wrap;html=1;boundedLbl=1;backgroundOutline=1;size=15;fontColor=#FFFFFF;strokeColor=#000000;gradientColor=none;fillColor=#CCCCCC;" vertex="1" parent="0HENcQPIfgkLxAprL_2r-1">
          <mxGeometry x="270" y="505" width="60" height="80" as="geometry" />
        </mxCell>
        <mxCell id="3Pf0c1-9sglwdIu-QdAl-81" value="任务" style="shape=cylinder3;whiteSpace=wrap;html=1;boundedLbl=1;backgroundOutline=1;size=15;fontColor=#FFFFFF;strokeColor=#000000;gradientColor=none;fillColor=#CCCCCC;" vertex="1" parent="0HENcQPIfgkLxAprL_2r-1">
          <mxGeometry x="170" y="580" width="60" height="80" as="geometry" />
        </mxCell>
        <mxCell id="3Pf0c1-9sglwdIu-QdAl-83" value="成员" style="shape=cylinder3;whiteSpace=wrap;html=1;boundedLbl=1;backgroundOutline=1;size=15;fontColor=#FFFFFF;strokeColor=#000000;gradientColor=none;fillColor=#CCCCCC;" vertex="1" parent="0HENcQPIfgkLxAprL_2r-1">
          <mxGeometry x="370" y="580" width="60" height="80" as="geometry" />
        </mxCell>
        <mxCell id="3Pf0c1-9sglwdIu-QdAl-84" value="" style="edgeStyle=orthogonalEdgeStyle;rounded=0;orthogonalLoop=1;jettySize=auto;html=1;fontColor=#FFFFFF;" edge="1" parent="0HENcQPIfgkLxAprL_2r-1" source="3Pf0c1-9sglwdIu-QdAl-80" target="3Pf0c1-9sglwdIu-QdAl-81">
          <mxGeometry relative="1" as="geometry">
            <mxPoint x="300" y="585" as="sourcePoint" />
            <mxPoint x="230" y="620.0285714285714" as="targetPoint" />
            <Array as="points">
              <mxPoint x="300" y="620" />
            </Array>
          </mxGeometry>
        </mxCell>
      </root>
    </mxGraphModel>
  </diagram>
</mxfile>
